<svg width="94" height="59" viewBox="0 0 94 59" fill="none" xmlns="http://www.w3.org/2000/svg">
<path d="M4.08 5.304H9.024C9.184 5.304 9.328 5.368 9.456 5.496C9.584 5.592 9.648 5.72 9.648 5.88V28.536L26.88 6.072C27.296 5.56 27.824 5.304 28.464 5.304H34.56C34.752 5.304 34.88 5.384 34.944 5.544C35.04 5.704 35.04 5.848 34.944 5.976L10.224 38.136C9.808 38.648 9.28 38.904 8.64 38.904H4.08C3.92 38.904 3.776 38.856 3.648 38.76C3.552 38.632 3.504 38.488 3.504 38.328V5.88C3.504 5.72 3.552 5.592 3.648 5.496C3.776 5.368 3.92 5.304 4.08 5.304ZM39.33 5.4H44.274C44.69 5.4 44.898 5.592 44.898 5.976V32.904H58.338C58.53 32.904 58.658 32.984 58.722 33.144C58.818 33.304 58.818 33.448 58.722 33.576L55.122 38.232C54.706 38.744 54.194 39 53.586 39H39.33C39.17 39 39.026 38.952 38.898 38.856C38.802 38.728 38.754 38.584 38.754 38.424V5.976C38.754 5.816 38.802 5.688 38.898 5.592C39.026 5.464 39.17 5.4 39.33 5.4ZM62.5196 5.88C62.5196 5.72 62.5676 5.592 62.6636 5.496C62.7916 5.368 62.9356 5.304 63.0956 5.304H88.4396C88.5996 5.304 88.7276 5.368 88.8236 5.496C88.9516 5.592 89.0156 5.72 89.0156 5.88V12.936C89.0156 13.384 88.8716 13.784 88.5836 14.136L80.9996 24.072L91.8476 38.232C91.9436 38.392 91.9436 38.552 91.8476 38.712C91.7836 38.84 91.6716 38.904 91.5116 38.904H85.4156C84.7756 38.904 84.2476 38.648 83.8316 38.136L73.3196 24.456C73.0956 24.2 73.0956 23.96 73.3196 23.736L82.7756 11.4H68.6636V38.328C68.6636 38.712 68.4556 38.904 68.0396 38.904H63.0956C62.9356 38.904 62.7916 38.856 62.6636 38.76C62.5676 38.632 62.5196 38.488 62.5196 38.328V5.88Z" fill="#F84555"/>
<path d="M58.7022 46.576H60.2262C60.3862 46.576 60.5182 46.64 60.6222 46.768L64.9422 52.384V46.72C64.9422 46.68 64.9542 46.648 64.9782 46.624C65.0102 46.592 65.0462 46.576 65.0862 46.576H66.2262C66.3862 46.576 66.5182 46.64 66.6222 46.768L70.9302 52.384V46.72C70.9302 46.68 70.9462 46.648 70.9782 46.624C71.0102 46.592 71.0462 46.576 71.0862 46.576H72.3222C72.3622 46.576 72.3942 46.592 72.4182 46.624C72.4502 46.648 72.4662 46.68 72.4662 46.72V54.832C72.4662 54.928 72.4182 54.976 72.3222 54.976H71.1822C71.0222 54.976 70.8902 54.912 70.7862 54.784L66.4662 49.168V54.832C66.4662 54.928 66.4182 54.976 66.3222 54.976H65.1822C65.0222 54.976 64.8902 54.912 64.7862 54.784L58.6182 46.744C58.5862 46.712 58.5822 46.676 58.6062 46.636C58.6302 46.596 58.6622 46.576 58.7022 46.576ZM74.3427 46.6H75.5787C75.6827 46.6 75.7347 46.648 75.7347 46.744V54.856C75.7347 54.952 75.6827 55 75.5787 55H74.3427C74.3027 55 74.2667 54.988 74.2347 54.964C74.2107 54.932 74.1987 54.896 74.1987 54.856V46.744C74.1987 46.704 74.2107 46.672 74.2347 46.648C74.2667 46.616 74.3027 46.6 74.3427 46.6ZM79.4842 50.716L82.4962 46.792C82.6002 46.664 82.7322 46.6 82.8922 46.6H84.4162C84.4642 46.6 84.4962 46.62 84.5122 46.66C84.5362 46.692 84.5362 46.728 84.5122 46.768L81.4162 50.8L84.5002 54.832C84.5322 54.872 84.5362 54.912 84.5122 54.952C84.4962 54.984 84.4642 55 84.4162 55H82.8922C82.7322 55 82.6002 54.936 82.4962 54.808L79.4842 50.896C79.4442 50.832 79.4442 50.772 79.4842 50.716ZM77.4682 46.744C77.4682 46.704 77.4802 46.672 77.5042 46.648C77.5362 46.616 77.5722 46.6 77.6122 46.6H78.8482C78.9522 46.6 79.0042 46.648 79.0042 46.744V54.856C79.0042 54.952 78.9522 55 78.8482 55H77.6122C77.5722 55 77.5362 54.988 77.5042 54.964C77.4802 54.932 77.4682 54.896 77.4682 54.856V46.744ZM85.6044 46.6H86.8404C86.9444 46.6 86.9964 46.648 86.9964 46.744V54.856C86.9964 54.952 86.9444 55 86.8404 55H85.6044C85.5644 55 85.5284 54.988 85.4964 54.964C85.4724 54.932 85.4604 54.896 85.4604 54.856V46.744C85.4604 46.704 85.4724 46.672 85.4964 46.648C85.5284 46.616 85.5644 46.6 85.6044 46.6Z" fill="black"/>
</svg>
