<svg width="463" height="463" viewBox="0 0 463 463" fill="none" xmlns="http://www.w3.org/2000/svg">
<path fill-rule="evenodd" clip-rule="evenodd" d="M0.334961 231.921C0.334961 104.343 103.757 0.920898 231.335 0.920898C358.913 0.920898 462.335 104.343 462.335 231.921C462.335 237.713 462.115 243.454 461.697 249.14L231.335 55.0098L0.973389 249.14C0.554439 243.454 0.334961 237.713 0.334961 231.921ZM21.5005 328.613C34.165 356.051 52.0508 380.578 73.8862 400.929L231.335 268.244L388.784 400.929C410.619 380.578 428.505 356.051 441.17 328.613L231.335 151.782L21.5005 328.613ZM138.312 443.408C166.773 455.946 198.237 462.921 231.335 462.921C264.432 462.921 295.896 455.946 324.358 443.408L231.335 365.016L138.312 443.408Z" fill="#000"/>
</svg>
