<svg width="463" height="463" viewBox="0 0 463 463" fill="none" xmlns="http://www.w3.org/2000/svg">
<path d="M283.621 231.96L418.693 96.8887C446.121 134.876 462.295 181.526 462.295 231.96C462.295 282.395 446.121 329.045 418.693 367.032L283.621 231.96ZM231.295 179.634L366.367 44.5625C328.38 17.1343 281.729 0.960449 231.295 0.960449C180.861 0.960449 134.21 17.1343 96.2232 44.5625L231.295 179.634ZM231.295 284.287L96.2232 419.358C134.21 446.787 180.861 462.96 231.295 462.96C281.729 462.96 328.38 446.787 366.367 419.358L231.295 284.287V284.287ZM43.897 96.8887C16.4688 134.876 0.294922 181.526 0.294922 231.96C0.294922 282.395 16.4688 329.045 43.897 367.032L178.969 231.96L43.897 96.8887Z" fill="#000"/>
</svg>
